<svg width="385" height="69" viewBox="0 0 385 69" fill="none" xmlns="http://www.w3.org/2000/svg">
<g clip-path="url(#clip0_107_72544)">
<path d="M-0.000549316 10.529V24.1492C-0.000549316 28.2975 5.05407 30.5099 8.14301 27.6061L22.8856 13.9859C26.115 11.013 24.0089 5.75854 19.5861 5.75854H4.84346C2.17575 5.75854 -0.000549316 7.90182 -0.000549316 10.529Z" fill="white"/>
<path d="M69.7802 5.75854H55.0375C50.6849 5.75854 48.5086 11.013 51.738 13.9859L66.4806 27.6061C69.5695 30.4407 74.6242 28.2975 74.6242 24.1492V10.529C74.6242 7.90182 72.4479 5.75854 69.7802 5.75854Z" fill="white"/>
<path d="M40.647 39.0137L66.4817 62.9354C69.5707 65.7701 74.6253 63.6268 74.6253 59.4785V45.7201C74.6253 44.4065 74.0637 43.162 73.0808 42.2632L40.647 12.1883C38.7515 10.4599 35.8732 10.4599 33.9777 12.1883L1.54392 42.2632C0.561075 43.162 -0.000549316 44.4065 -0.000549316 45.7201V59.4785C-0.000549316 63.6268 5.05407 65.8392 8.14301 62.9354L33.9777 39.0137C35.8732 37.2853 38.7515 37.2853 40.647 39.0137Z" fill="white"/>
</g>
<path d="M104.281 55.7159L95.8977 24.9122H104.541L109.314 45.6084H109.595L114.569 24.9122H123.052L128.105 45.4881H128.366L133.059 24.9122H141.682L133.32 55.7159H124.275L118.981 36.3432H118.599L113.305 55.7159H104.281ZM154.783 37.9075V55.7159H146.24V14.6442H154.542V30.3469H154.903C155.598 28.5287 156.722 27.1048 158.272 26.0753C159.823 25.0325 161.769 24.5111 164.108 24.5111C166.247 24.5111 168.113 24.979 169.704 25.9149C171.308 26.8374 172.551 28.1677 173.434 29.9057C174.329 31.6304 174.771 33.696 174.757 36.1026V55.7159H166.214V37.6267C166.227 35.7282 165.746 34.2509 164.77 33.1947C163.807 32.1385 162.457 31.6104 160.719 31.6104C159.556 31.6104 158.526 31.8577 157.631 32.3524C156.748 32.8471 156.053 33.569 155.545 34.5183C155.05 35.4542 154.796 36.5839 154.783 37.9075ZM181.481 55.7159V24.9122H190.024V55.7159H181.481ZM185.772 20.9413C184.502 20.9413 183.412 20.5202 182.503 19.6779C181.608 18.8223 181.16 17.7995 181.16 16.6096C181.16 15.433 181.608 14.4236 182.503 13.5813C183.412 12.7257 184.502 12.2978 185.772 12.2978C187.042 12.2978 188.125 12.7257 189.021 13.5813C189.93 14.4236 190.385 15.433 190.385 16.6096C190.385 17.7995 189.93 18.8223 189.021 19.6779C188.125 20.5202 187.042 20.9413 185.772 20.9413ZM213.252 24.9122V31.3296H194.701V24.9122H213.252ZM198.913 17.5321H207.456V46.2502C207.456 47.039 207.577 47.654 207.817 48.0952C208.058 48.523 208.392 48.8239 208.82 48.9977C209.261 49.1715 209.769 49.2584 210.344 49.2584C210.745 49.2584 211.146 49.225 211.547 49.1581C211.948 49.0779 212.256 49.0177 212.47 48.9776L213.813 55.3349C213.386 55.4686 212.784 55.6224 212.009 55.7962C211.233 55.9833 210.291 56.097 209.181 56.1371C207.122 56.2173 205.317 55.9432 203.766 55.3149C202.229 54.6865 201.032 53.7105 200.176 52.3869C199.321 51.0633 198.9 49.3921 198.913 47.3732V17.5321ZM232.524 56.3176C229.356 56.3176 226.628 55.6758 224.342 54.3923C222.069 53.0955 220.318 51.2638 219.088 48.8974C217.858 46.5176 217.243 43.7033 217.243 40.4544C217.243 37.2858 217.858 34.5049 219.088 32.1117C220.318 29.7186 222.049 27.8535 224.282 26.5165C226.528 25.1795 229.162 24.5111 232.183 24.5111C234.216 24.5111 236.107 24.8386 237.859 25.4937C239.624 26.1355 241.161 27.1048 242.471 28.4016C243.795 29.6985 244.825 31.3296 245.56 33.295C246.295 35.2469 246.663 37.5331 246.663 40.1536V42.5H220.652V37.2056H238.621C238.621 35.9756 238.354 34.8859 237.819 33.9367C237.284 32.9874 236.542 32.2454 235.593 31.7106C234.657 31.1625 233.567 30.8884 232.324 30.8884C231.027 30.8884 229.877 31.1892 228.874 31.7909C227.885 32.3791 227.11 33.1746 226.548 34.1774C225.987 35.1667 225.699 36.2697 225.686 37.4864V42.52C225.686 44.0442 225.967 45.3611 226.528 46.4708C227.103 47.5805 227.912 48.4361 228.955 49.0378C229.998 49.6394 231.234 49.9402 232.665 49.9402C233.614 49.9402 234.483 49.8065 235.272 49.5391C236.061 49.2717 236.736 48.8707 237.297 48.3359C237.859 47.8011 238.287 47.146 238.581 46.3705L246.482 46.8919C246.081 48.7904 245.259 50.4483 244.016 51.8655C242.786 53.2693 241.195 54.3656 239.243 55.1544C237.304 55.9299 235.065 56.3176 232.524 56.3176ZM252.238 67.2674V24.9122H260.661V30.0862H261.042C261.416 29.2573 261.958 28.415 262.666 27.5594C263.388 26.6903 264.324 25.9684 265.474 25.3935C266.637 24.8052 268.081 24.5111 269.806 24.5111C272.052 24.5111 274.124 25.0993 276.023 26.2759C277.921 27.439 279.439 29.1971 280.575 31.5502C281.712 33.8899 282.28 36.8246 282.28 40.3542C282.28 43.7902 281.725 46.6914 280.615 49.0578C279.519 51.4109 278.021 53.1958 276.123 54.4124C274.238 55.6157 272.125 56.2173 269.786 56.2173C268.128 56.2173 266.717 55.9432 265.554 55.3951C264.404 54.8469 263.462 54.1584 262.727 53.3295C261.991 52.4872 261.43 51.6382 261.042 50.7825H260.781V67.2674H252.238ZM260.601 40.314C260.601 42.1457 260.855 43.7434 261.363 45.1071C261.871 46.4708 262.606 47.5337 263.569 48.2958C264.531 49.0445 265.701 49.4188 267.078 49.4188C268.469 49.4188 269.645 49.0378 270.608 48.2757C271.571 47.5003 272.299 46.4307 272.794 45.067C273.302 43.6899 273.556 42.1056 273.556 40.314C273.556 38.5359 273.309 36.9716 272.814 35.6213C272.319 34.2709 271.591 33.2147 270.628 32.4527C269.665 31.6906 268.482 31.3096 267.078 31.3096C265.688 31.3096 264.511 31.6772 263.549 32.4126C262.6 33.1479 261.871 34.1907 261.363 35.5411C260.855 36.8914 260.601 38.4824 260.601 40.314ZM296.759 56.2975C294.794 56.2975 293.042 55.9566 291.505 55.2747C289.967 54.5795 288.751 53.5567 287.855 52.2064C286.972 50.8427 286.531 49.1447 286.531 47.1125C286.531 45.4012 286.845 43.964 287.474 42.8008C288.102 41.6376 288.958 40.7018 290.041 39.9932C291.124 39.2846 292.354 38.7498 293.731 38.3888C295.121 38.0278 296.579 37.7738 298.103 37.6267C299.894 37.4396 301.338 37.2658 302.435 37.1053C303.531 36.9315 304.326 36.6775 304.821 36.3432C305.316 36.009 305.563 35.5143 305.563 34.8592V34.7389C305.563 33.4688 305.162 32.4861 304.36 31.7909C303.571 31.0956 302.448 30.748 300.991 30.748C299.453 30.748 298.23 31.089 297.321 31.7708C296.412 32.4393 295.81 33.2816 295.516 34.2977L287.614 33.6559C288.015 31.7842 288.804 30.1664 289.981 28.8027C291.157 27.4257 292.675 26.3694 294.533 25.6341C296.405 24.8854 298.571 24.5111 301.031 24.5111C302.742 24.5111 304.38 24.7116 305.944 25.1127C307.522 25.5138 308.919 26.1355 310.136 26.9778C311.366 27.8201 312.335 28.903 313.043 30.2266C313.752 31.5368 314.106 33.1078 314.106 34.9394V55.7159H306.004V51.4443H305.764C305.269 52.4069 304.607 53.2559 303.778 53.9913C302.949 54.7132 301.953 55.2814 300.79 55.6959C299.627 56.097 298.283 56.2975 296.759 56.2975ZM299.206 50.4015C300.463 50.4015 301.572 50.1541 302.535 49.6595C303.497 49.1514 304.253 48.4696 304.801 47.6139C305.349 46.7582 305.623 45.7889 305.623 44.706V41.4371C305.356 41.6109 304.988 41.7713 304.52 41.9184C304.066 42.0521 303.551 42.1791 302.976 42.2994C302.401 42.4064 301.826 42.5067 301.251 42.6003C300.676 42.6805 300.155 42.754 299.687 42.8209C298.684 42.9679 297.809 43.2019 297.06 43.5228C296.311 43.8436 295.73 44.2782 295.315 44.8263C294.901 45.3611 294.693 46.0296 294.693 46.8318C294.693 47.9949 295.115 48.884 295.957 49.499C296.813 50.1007 297.896 50.4015 299.206 50.4015ZM334.652 56.3176C331.497 56.3176 328.783 55.6491 326.51 54.3121C324.251 52.9618 322.513 51.09 321.296 48.6968C320.093 46.3037 319.491 43.5495 319.491 40.4344C319.491 37.2791 320.099 34.5116 321.316 32.1318C322.546 29.7386 324.291 27.8735 326.55 26.5366C328.81 25.1862 331.497 24.5111 334.612 24.5111C337.299 24.5111 339.652 24.9991 341.671 25.975C343.69 26.951 345.288 28.3214 346.464 30.0862C347.641 31.851 348.289 33.9233 348.41 36.3031H340.348C340.12 34.7656 339.519 33.5289 338.543 32.593C337.58 31.6438 336.317 31.1692 334.752 31.1692C333.429 31.1692 332.272 31.5302 331.283 32.2521C330.307 32.9607 329.545 33.9969 328.997 35.3606C328.449 36.7243 328.175 38.3754 328.175 40.314C328.175 42.2794 328.442 43.9506 328.977 45.3277C329.525 46.7048 330.294 47.7543 331.283 48.4762C332.272 49.1982 333.429 49.5592 334.752 49.5592C335.728 49.5592 336.604 49.3586 337.38 48.9576C338.168 48.5565 338.817 47.9749 339.325 47.2128C339.846 46.4374 340.187 45.5082 340.348 44.4252H348.41C348.276 46.7783 347.634 48.8506 346.484 50.6421C345.348 52.4203 343.777 53.8108 341.772 54.8135C339.766 55.8162 337.393 56.3176 334.652 56.3176ZM367.918 56.3176C364.749 56.3176 362.022 55.6758 359.735 54.3923C357.463 53.0955 355.711 51.2638 354.481 48.8974C353.251 46.5176 352.636 43.7033 352.636 40.4544C352.636 37.2858 353.251 34.5049 354.481 32.1117C355.711 29.7186 357.443 27.8535 359.675 26.5165C361.921 25.1795 364.555 24.5111 367.577 24.5111C369.609 24.5111 371.501 24.8386 373.252 25.4937C375.017 26.1355 376.555 27.1048 377.865 28.4016C379.188 29.6985 380.218 31.3296 380.953 33.295C381.688 35.2469 382.056 37.5331 382.056 40.1536V42.5H356.045V37.2056H374.014C374.014 35.9756 373.747 34.8859 373.212 33.9367C372.677 32.9874 371.935 32.2454 370.986 31.7106C370.05 31.1625 368.961 30.8884 367.717 30.8884C366.42 30.8884 365.27 31.1892 364.268 31.7909C363.278 32.3791 362.503 33.1746 361.941 34.1774C361.38 35.1667 361.092 36.2697 361.079 37.4864V42.52C361.079 44.0442 361.36 45.3611 361.921 46.4708C362.496 47.5805 363.305 48.4361 364.348 49.0378C365.391 49.6394 366.627 49.9402 368.058 49.9402C369.007 49.9402 369.876 49.8065 370.665 49.5391C371.454 49.2717 372.129 48.8707 372.691 48.3359C373.252 47.8011 373.68 47.146 373.974 46.3705L381.876 46.8919C381.475 48.7904 380.652 50.4483 379.409 51.8655C378.179 53.2693 376.588 54.3656 374.636 55.1544C372.697 55.9299 370.458 56.3176 367.918 56.3176Z" fill="white"/>
<defs>
<clipPath id="clip0_107_72544">
<rect width="74.6259" height="58.4905" fill="white" transform="translate(-0.000183105 5.7583)"/>
</clipPath>
</defs>
</svg>
