<svg width="833" height="837" viewBox="0 0 833 837" fill="none" xmlns="http://www.w3.org/2000/svg">
<g opacity="0.2">
<path d="M741.673 316.809C743.275 322.787 743.132 330.481 741.021 341.239C735.15 369.863 704.141 405.91 671.336 443.987C653.332 464.939 634.702 486.574 620.206 507.187C592.567 539.021 579.667 583.892 567.148 627.328C558.017 659.062 549.358 689.035 535.489 714.168L535.457 714.219C524.536 733.23 511.979 744.121 497.096 747.506C468.054 754.127 434.419 731.014 395.476 704.206L391.729 701.64C362.749 681.795 324.534 657.372 267.874 622.366L263.2 619.361C213.864 587.683 152.457 548.229 105.6 488.362C2.72435 370.868 22.5707 238.597 68.4583 186.22C123.36 129.707 193.644 114.487 337.21 127.97C486.929 142.256 622.281 226.491 673.511 262.049C691.397 277.426 705.933 286.175 716.544 292.535C729.962 300.637 738.748 305.895 741.673 316.809ZM530.513 711.717C544.081 687.137 552.636 657.45 561.717 626.031C574.37 582.086 587.465 536.603 615.731 504.086C630.216 483.432 648.951 461.683 667.028 440.669C699.342 403.111 729.871 367.622 735.487 340.399C740.676 313.592 733.809 309.455 713.419 297.157C702.638 290.67 687.839 281.777 669.837 266.301C619.177 231.193 484.838 147.547 336.454 133.376C194.96 120.069 125.902 134.832 72.5576 189.766C28.0586 240.61 9.02337 369.697 109.952 484.96C156.374 544.212 217.348 583.395 266.315 614.871L270.978 617.836C327.692 652.871 365.959 677.323 395.003 697.236L398.749 699.802C436.595 725.872 469.291 748.334 495.835 742.296C509.101 739.258 520.413 729.26 530.513 711.717Z" fill="#A7CEFC"/>
<path d="M705.828 335.144C708.043 343.41 707.616 352.899 705.931 366.253L705.912 366.516C699.974 392.878 675.622 419.014 649.87 446.643C632.253 465.513 614.093 485.043 599.487 506.589C574.852 538.048 558.659 573.652 542.996 608.039C532.499 631.151 522.561 652.994 510.458 672.966L510.198 673.337C473.424 717.252 447.338 699.814 399.957 668.213C394.808 664.777 389.384 661.155 383.612 657.412C373.497 649.715 362.329 641.612 350.485 633.002C297.819 594.775 225.699 542.366 156.413 459.738C79.2795 356.721 88.8002 258.61 132.422 207.012C178.289 154.727 249.411 151.195 372.966 163.03C498.856 178.54 594.863 242.697 646.433 277.174L652.184 281.009C687.185 307.541 701.527 319.094 705.828 335.144ZM700.357 365.596C704.899 329.157 700.214 324.434 648.805 285.355L643.212 281.607C592.032 247.412 496.743 183.75 372.284 168.373C250.8 156.715 180.959 159.989 136.783 210.36C94.5594 260.293 85.6323 355.75 160.954 456.371C229.722 538.407 301.546 590.551 353.958 628.674C365.803 637.284 376.971 645.387 387.023 653.015C392.636 656.671 398.06 660.293 403.252 663.718C450.685 695.348 472.381 709.833 505.743 670.144C517.617 650.491 527.43 628.854 537.855 605.976C553.611 571.263 569.959 535.402 594.897 503.562C609.628 481.81 627.965 462.103 645.718 443.068C670.874 416.072 694.663 390.517 700.357 365.596Z" fill="#A7CEFC"/>
<path d="M675.99 350.708C678.818 361.261 677.496 372.108 674.048 386.106C666.666 409.931 644.484 433.421 621.049 458.279C607.096 473.027 592.705 488.323 580.15 504.761C559.871 528.472 544.051 554.386 528.71 579.398C516.127 599.929 504.272 619.318 491.054 635.633L490.845 635.861C454.757 671.42 428.216 651.782 380.012 616.102L379.453 615.692L371.204 608.915C324.369 570.287 260.212 517.378 202.416 436.832C138.776 340.521 156.706 263.552 191.326 226.881C228.244 187.702 289.431 178.489 402.515 195.065C481.692 207.996 559.131 242.982 632.672 299.01C659.385 321.14 671.947 335.621 675.99 350.708ZM486.693 632.286C499.629 616.262 511.401 597.066 523.817 576.752C539.242 551.546 555.239 525.456 575.684 501.528C588.291 484.947 602.84 469.566 616.897 454.704C639.925 430.342 661.648 407.319 668.617 384.809C676.539 352.926 672.536 339.162 629.029 303.212C556.238 247.8 479.664 213.184 401.475 200.418C290.548 184.167 230.84 192.855 195.394 230.479C159.479 268.529 149.141 346.129 207.054 433.826C264.405 513.717 328.224 566.372 374.868 604.793L383.455 611.825C431.997 647.759 454.22 664.21 486.693 632.286Z" fill="#A7CEFC"/>
<path d="M648.12 362.217C651.281 374.014 650.009 386.225 645.01 400.81L644.99 400.902C636.631 423.096 615.552 444.828 593.283 467.826C582.952 478.464 572.319 489.484 562.446 500.989C547.69 516.769 534.6 533.394 521.99 549.459C506.49 569.181 491.836 587.858 476.448 601.615C443.086 627.369 417.292 609.681 378.674 577.539C341.286 543.777 286.682 490.76 243.708 419.359C208.006 349.752 205.94 291 237.804 253.777C272.119 213.618 340.739 202.93 426.085 224.444C525.095 244.403 594.718 299.245 613.671 315.583C633.137 333.161 644.142 347.371 648.12 362.217ZM639.683 399.227C648.978 371.965 646.888 353.086 609.807 319.629C591.149 303.556 522.434 249.417 424.666 229.726C341.447 208.761 274.935 218.755 242.133 257.176C211.783 292.66 214.142 349.312 248.726 416.767C291.276 487.422 345.468 540.076 382.549 573.533C422.277 606.625 444.165 619.812 472.903 597.619C487.736 584.312 502.224 565.851 517.588 546.295C530.302 530.115 543.413 513.4 558.284 497.545C568.147 486 578.906 474.946 589.268 464.257C611.056 441.646 631.706 420.33 639.683 399.227Z" fill="#A7CEFC"/>
<path d="M622.334 371.407C625.688 383.926 624.283 396.645 618.504 411.009L618.297 411.409C582.085 470.181 485.57 554.058 466.613 570.276L466.152 570.571C437.18 587.021 413.977 573.628 381.308 543.203C351.852 514.197 310.589 466.98 281.049 406.602C255.677 350.526 256.916 303.102 284.523 272.998C315.201 239.576 373.328 231.699 444 251.339C511.34 267.27 566.206 302.628 595.065 330.418C609.868 345.03 618.775 358.125 622.334 371.407ZM613.363 408.946C624.307 381.458 618.247 361.191 591.021 334.297C562.701 307.007 508.774 272.301 442.434 256.575C374.825 237.792 317.401 245.266 288.707 276.521C262.623 304.927 261.698 350.332 286.185 404.28C315.395 463.929 356.244 510.612 385.352 539.324C416.595 568.454 437.257 580.593 463.193 566.074C517.65 519.486 585.623 453.837 613.363 408.946Z" fill="#A7CEFC"/>
<path d="M598.612 380.085C602.203 393.487 600.651 406.332 593.981 417.537C567.765 462.235 502.396 518.972 460.084 541.878C450.106 546.444 439.229 546.649 427.706 542.598C392.191 530.095 349.984 476.164 314.811 398.287C297.841 353.592 301.545 315.872 325.238 291.977C352.087 264.915 400.168 259.17 457.099 276.213C529.429 298.849 581.452 335.184 596.364 373.377C597.282 375.625 598.02 377.879 598.612 380.085ZM314.507 379.188C315.99 384.725 317.822 390.384 320.042 396.154C354.555 472.574 395.589 525.486 429.746 537.449C439.878 541.013 449.242 540.87 457.616 537.035C499.059 514.576 563.382 458.808 589.131 414.88C596.008 403.275 596.704 389.585 591.132 375.338C576.796 338.625 526.03 303.458 455.322 281.334C401.328 265.181 354.212 270.495 329.275 295.626C310.189 314.889 305.121 344.158 314.507 379.188Z" fill="#A7CEFC"/>
<path d="M575.194 385.027C578.527 397.466 577.264 409.545 571.412 420.273C550.663 458.517 497.067 503.111 456.742 515.637L456.658 515.659C419.146 525.926 372.297 474.486 345.345 393.373C335.056 358.5 340.334 329.175 360.308 310.706C383.198 289.521 421.724 285.39 466.046 299.361C520.036 316.848 559.92 346.157 572.764 377.808C573.736 380.257 574.559 382.66 575.194 385.027ZM455.176 510.465C494.284 498.266 546.302 454.998 566.436 417.822C572.622 406.488 572.984 393.403 567.522 379.901C555.243 349.689 516.606 321.508 464.143 304.516C421.885 291.196 385.395 294.867 364.094 314.594C345.751 331.594 340.934 358.946 350.664 391.733C376.266 468.648 421.221 519.736 455.176 510.465Z" fill="#A7CEFC"/>
<path d="M552.84 389.081C555.754 399.954 554.872 410.598 550.127 420.256C533.609 454.141 490.492 486.638 455.932 491.297C422.617 495.235 386.209 451.362 373.027 391.589C367.634 365.252 373.682 343.161 389.994 329.329C408.691 313.482 438.343 310.482 471.304 321.175C509.932 333.876 539.401 356.385 550.146 381.374C551.286 383.949 552.152 386.513 552.84 389.081ZM380.779 399.532C394.82 451.936 426.565 489.317 455.342 485.907C487.603 481.563 529.537 449.856 545.079 418.039C550.187 407.553 550.147 395.651 544.967 383.535C534.808 359.895 506.544 338.525 469.391 326.289C438.399 316.23 410.794 318.81 393.634 333.342C378.931 345.797 373.567 366.071 378.506 390.379C379.239 393.451 379.972 396.523 380.779 399.532Z" fill="#A7CEFC"/>
<path d="M531.38 392.596C533.724 401.343 533.209 409.996 529.831 418.04C518.091 445.915 485.508 468.536 457.194 468.468C429.14 468.201 403.336 434.689 398.446 392.263C396.409 373.413 402.253 357.612 414.911 347.769C429.242 336.618 450.628 334.5 473.585 341.939C499.818 350.521 519.828 366.103 528.453 384.693C529.688 387.287 530.671 389.948 531.38 392.596ZM457.361 463.047C483.069 463.126 513.882 441.624 524.638 416.12C528.461 407.054 528.012 396.982 523.348 386.964C515.416 369.952 496.113 354.997 471.703 347.002C450.621 340.179 431.219 341.98 418.404 351.908C407.304 360.516 402.218 374.608 404.054 391.534C408.525 430.718 432.461 462.795 457.361 463.047Z" fill="#A7CEFC"/>
<path d="M510.557 395.809C512.18 401.868 512.113 408.165 509.963 414.246C502.938 434.534 480.409 449.172 459.785 446.915C439.234 444.594 422.225 421.241 421.887 394.797C421.719 382.585 426.576 372.338 435.482 365.952C445.298 358.935 459.12 357.468 473.357 361.911C492.911 368.068 506.664 381.284 510.557 395.809ZM504.678 412.651C510.742 395.157 495.905 374.706 471.538 367.043C459.071 363.158 447.096 364.303 438.797 370.268C431.398 375.562 427.372 384.209 427.509 394.623C427.831 418.491 442.651 439.55 460.551 441.548C478.672 443.531 498.458 430.574 504.678 412.651Z" fill="#A7CEFC"/>
<path d="M490.208 399.283C491.09 402.573 491.153 405.997 490.259 409.376C487.196 420.948 475.061 428.543 463.16 426.27C451.407 424.044 442.724 411.619 443.834 398.635C444.364 392.386 447.359 387.111 452.332 383.844C457.566 380.377 464.529 379.5 471.404 381.486C481.122 384.343 488.069 391.298 490.208 399.283ZM450.145 406.577C452.092 413.84 457.582 419.723 464.411 421.033C473.365 422.719 482.537 416.993 484.818 408.21C487.151 399.457 480.335 389.801 469.659 386.727C464.342 385.184 459.322 385.755 455.428 388.347C451.91 390.665 449.778 394.462 449.386 399.04C449.222 401.621 449.5 404.17 450.145 406.577Z" fill="#A7CEFC"/>
</g>
</svg>
